<svg width="18" height="15" viewBox="0 0 18 15" fill="none" xmlns="http://www.w3.org/2000/svg">
<path opacity="0.46" d="M15 0C15.663 0 16.2989 0.263392 16.7678 0.732233C17.2366 1.20107 17.5 1.83696 17.5 2.5V11.6667C17.5 12.3297 17.2366 12.9656 16.7678 13.4344C16.2989 13.9033 15.663 14.1667 15 14.1667H2.5C1.83696 14.1667 1.20107 13.9033 0.732233 13.4344C0.263392 12.9656 0 12.3297 0 11.6667V2.5C0 1.83696 0.263392 1.20107 0.732233 0.732233C1.20107 0.263392 1.83696 0 2.5 0H15ZM15.8333 2.94583L9.2125 7.36C9.08577 7.44457 8.93829 7.49279 8.78607 7.4994C8.63386 7.50601 8.48275 7.47077 8.34917 7.3975L8.28792 7.36L1.66667 2.94625V11.6667C1.6666 11.8769 1.746 12.0794 1.88896 12.2336C2.03191 12.3877 2.22785 12.4821 2.4375 12.4979L2.5 12.5H15C15.221 12.5 15.433 12.4122 15.5893 12.2559C15.7455 12.0996 15.8333 11.8877 15.8333 11.6667V2.94583ZM14.7467 1.66667H2.75292L8.75 5.66458L14.7467 1.66667Z" fill="#232C62"/>
</svg>
