<svg width="15" height="17" viewBox="0 0 15 17" fill="none" xmlns="http://www.w3.org/2000/svg">
<path opacity="0.46" d="M13.5105 5.66535H11.7667V4.6031C11.7667 2.06033 9.71741 0 7.19013 0C4.66285 0 2.6158 2.06033 2.6158 4.6031V5.66535H0.871933C0.391706 5.66535 0 6.05485 0 6.53729V15.6882C0 16.1706 0.389493 16.5601 0.871933 16.5601H13.5105C13.993 16.5601 14.3825 16.1706 14.3825 15.6882V6.53507C14.3825 6.05485 13.993 5.66535 13.5105 5.66535ZM3.9237 4.6031C3.9237 2.7862 5.38872 1.3079 7.19234 1.3079C8.99596 1.3079 10.461 2.7862 10.461 4.6031V5.66535H3.9237V4.6031ZM13.0746 15.2522H1.3079V6.97104H13.0746V15.2522Z" fill="#232C62"/>
</svg>
