<svg width="22" height="21" viewBox="0 0 22 21" fill="none" xmlns="http://www.w3.org/2000/svg">
<g clip-path="url(#clip0_1745_6588)">
<path d="M6.03747 20.9992C6.51851 20.9992 6.85229 20.7507 7.45113 20.2344L10.838 17.3H17.1406C20.066 17.3 21.6367 15.7229 21.6367 12.9222V5.60044C21.6367 2.79981 20.066 1.22266 17.1406 1.22266H4.4962C1.57072 1.22266 0 2.79024 0 5.60044V12.9222C0 15.7324 1.57072 17.3 4.4962 17.3H4.96742V19.7852C4.96742 20.5212 5.35029 20.9992 6.03747 20.9992ZM6.43997 19.25V16.478C6.43997 15.9618 6.23381 15.7611 5.7037 15.7611H4.4962C2.51316 15.7611 1.58055 14.7766 1.58055 12.9127V5.60044C1.58055 3.73654 2.51316 2.76158 4.4962 2.76158H17.1406C19.1138 2.76158 20.0562 3.73654 20.0562 5.60044V12.9127C20.0562 14.7766 19.1138 15.7611 17.1406 15.7611H10.7791C10.2294 15.7611 9.95446 15.8375 9.58142 16.2104L6.43997 19.25Z" fill="#232C62"/>
<path d="M6.27344 9.26109C6.27344 9.72946 6.61704 10.0449 7.11771 10.0449H10.0039V12.8646C10.0039 13.3426 10.3377 13.6771 10.809 13.6771C11.3096 13.6771 11.6433 13.3521 11.6433 12.8646V10.0449H14.5394C15.0303 10.0449 15.3739 9.72946 15.3739 9.26109C15.3739 8.78317 15.04 8.44862 14.5394 8.44862H11.6433V5.63843C11.6433 5.15095 11.3096 4.81641 10.809 4.81641C10.3377 4.81641 10.0039 5.15095 10.0039 5.63843V8.44862H7.11771C6.61704 8.44862 6.27344 8.78317 6.27344 9.26109Z" fill="#232C62"/>
</g>
<defs>
<clipPath id="clip0_1745_6588">
<rect width="22" height="21" fill="white"/>
</clipPath>
</defs>
</svg>
