<svg width="13" height="20" viewBox="0 0 13 20" fill="none" xmlns="http://www.w3.org/2000/svg">
<path opacity="0.46" d="M10.6364 0C11.8112 0 12.7637 1.19273 12.7637 2.66397V16.7104C12.7637 18.1816 11.8112 19.3744 10.6364 19.3744H2.12728C0.952441 19.3744 0 18.1816 0 16.7104V2.66397C0 1.19273 0.952441 2.27043e-08 2.12728 0H10.6364ZM7.92895 15.7417H4.83472C4.68085 15.7417 4.53329 15.8182 4.42448 15.9545C4.31568 16.0907 4.25456 16.2755 4.25456 16.4682C4.25456 16.6609 4.31568 16.8457 4.42448 16.9819C4.53329 17.1182 4.68085 17.1947 4.83472 17.1947H7.92895C8.08282 17.1947 8.23038 17.1182 8.33919 16.9819C8.44799 16.8457 8.50911 16.6609 8.50911 16.4682C8.50911 16.2755 8.44799 16.0907 8.33919 15.9545C8.23038 15.8182 8.08282 15.7417 7.92895 15.7417ZM10.6364 1.45308H2.12728C2.0003 1.45308 1.87456 1.4844 1.75724 1.54525C1.63993 1.6061 1.53333 1.6953 1.44355 1.80774C1.35376 1.92018 1.28253 2.05367 1.23394 2.20058C1.18534 2.3475 1.16033 2.50496 1.16033 2.66397V13.5621H11.6033V2.66397C11.6033 2.50496 11.5783 2.3475 11.5297 2.20058C11.4811 2.05367 11.4099 1.92018 11.3201 1.80774C11.2303 1.6953 11.1237 1.6061 11.0064 1.54525C10.8891 1.4844 10.7634 1.45308 10.6364 1.45308Z" fill="#232C62"/>
</svg>
