<svg width="18" height="14" viewBox="0 0 18 14" fill="none" xmlns="http://www.w3.org/2000/svg">
<g clip-path="url(#clip0_1761_6655)">
<path d="M14.3322 5.44801C14.8231 5.44801 15.2274 5.05024 15.2274 4.56724C15.2274 4.07713 14.8231 3.68646 14.3322 3.68646C13.8339 3.68646 13.4368 4.07713 13.4368 4.56724C13.4368 5.05024 13.8339 5.44801 14.3322 5.44801ZM2.26715 13.5454H15.4657C16.9675 13.5454 17.7329 12.8067 17.7329 11.3435V3.90665C17.7329 2.44344 16.9675 1.71183 15.4657 1.71183H13.4007C12.8303 1.71183 12.657 1.59818 12.3321 1.24302L11.7545 0.603756C11.3935 0.213091 11.0253 0 10.2816 0H7.40075C6.65704 0 6.28881 0.213091 5.9278 0.603756L5.35018 1.24302C5.02528 1.59107 4.84476 1.71183 4.28159 1.71183H2.26715C0.758123 1.71183 0 2.44344 0 3.90665V11.3435C0 12.8067 0.758123 13.5454 2.26715 13.5454ZM2.28159 12.4019C1.57401 12.4019 1.16246 12.0254 1.16246 11.2867V3.97058C1.16246 3.23187 1.57401 2.85541 2.28159 2.85541H4.5704C5.22022 2.85541 5.57401 2.73466 5.93502 2.33689L6.49819 1.71183C6.90975 1.25724 7.12635 1.14359 7.7617 1.14359H9.9206C10.5559 1.14359 10.7726 1.25724 11.1842 1.71183L11.7473 2.33689C12.1083 2.73466 12.4621 2.85541 13.1119 2.85541H15.4441C16.1589 2.85541 16.5704 3.23187 16.5704 3.97058V11.2867C16.5704 12.0254 16.1589 12.4019 15.4441 12.4019H2.28159ZM8.86644 11.379C11.0469 11.379 12.8015 9.66006 12.8015 7.49365C12.8015 5.33436 11.0542 3.61543 8.86644 3.61543C6.6787 3.61543 4.92419 5.33436 4.92419 7.49365C4.92419 9.66006 6.6787 11.379 8.86644 11.379ZM8.86644 10.2994C7.29964 10.2994 6.01445 9.05636 6.01445 7.49365C6.01445 5.93812 7.29242 4.68799 8.86644 4.68799C10.4404 4.68799 11.7112 5.93812 11.7112 7.49365C11.7112 9.05636 10.4404 10.2994 8.86644 10.2994Z" fill="#232C62"/>
</g>
<defs>
<clipPath id="clip0_1761_6655">
<rect width="18" height="14" fill="white"/>
</clipPath>
</defs>
</svg>
