<svg width="4" height="7" viewBox="0 0 4 7" fill="none" xmlns="http://www.w3.org/2000/svg">
<path opacity="0.46" d="M1.3079 3.80198V6.10132C1.3079 6.34254 1.50265 6.53729 1.74387 6.53729H2.17983C2.42105 6.53729 2.6158 6.34254 2.6158 6.10132V3.80198C3.37487 3.53199 3.9237 2.81276 3.9237 1.96074C3.9237 0.878573 3.04513 0 1.96074 0C0.878572 0 0 0.878573 0 1.96074C0.00221303 2.81497 0.548831 3.53199 1.3079 3.80198ZM1.96296 1.3079C2.32368 1.3079 2.61801 1.60002 2.61801 1.96074C2.61801 2.32147 2.32368 2.6158 1.96296 2.6158C1.60223 2.6158 1.31011 2.32368 1.31011 1.96074C1.3079 1.60002 1.60223 1.3079 1.96296 1.3079Z" fill="#232C62"/>
</svg>
