<?xml version="1.0" encoding="UTF-8"?>
<svg version="1.1" xmlns="http://www.w3.org/2000/svg" width="155" height="169">
<path d="M0 0 C6.2323481 3.4356271 9.75703543 8.3396542 12.14306641 14.984375 C13.5086606 19.98856554 13.83568827 25.16175601 14.3125 30.3125 C15.16850459 42.20525965 15.16850459 42.20525965 18.8125 53.4375 C23.50029334 57.24678215 29.30683993 57.0316612 35.125 57.375 C60.09166269 59.27017972 81.88932248 66.91294982 99.0625 85.875 C111.30784125 100.92224137 115.12158056 118.72853334 113.53515625 137.765625 C112.28522706 148.0031403 109.12277966 155.50190199 100.96875 162.05859375 C93.98853414 166.52239121 85.68767461 165.88988876 77.8125 164.4375 C71.29446368 162.49760824 66.37661935 158.1852064 62.8125 152.4375 C59.17367377 144.30648481 58.79776173 135.61443376 57.99609375 126.85546875 C57.16303324 116.78577087 57.16303324 116.78577087 51.8125 108.5625 C48.5794233 106.74389436 45.79490796 106.28373895 42.15625 106.078125 C18.87898324 104.55868433 -3.65667016 99.95516454 -21.1875 83.4375 C-21.95449219 82.72335938 -22.72148437 82.00921875 -23.51171875 81.2734375 C-36.7281571 67.85505018 -41.71050839 50.59105125 -41.60986328 32.16650391 C-41.31219853 21.37080647 -38.67220907 12.44439807 -31.1875 4.4375 C-22.96032237 -3.0061369 -10.35349769 -4.13076192 0 0 Z " fill="#786EDA" transform="translate(41.1875,1.5625)"/>
<path d="M0 0 C7.07174548 4.26865925 12.89816618 9.99629122 15.52806091 17.94500732 C16.09573957 21.00333442 16.06052621 23.94117576 16.05493164 27.05175781 C16.05507767 27.73509186 16.05522369 28.4184259 16.05537415 29.12246704 C16.0546794 31.37334404 16.04690757 33.62413752 16.0390625 35.875 C16.03719676 37.4386999 16.03577359 39.00240038 16.03477478 40.56610107 C16.03096187 44.67604189 16.02114205 48.78594721 16.0100708 52.89587402 C15.99983032 57.09203613 15.99527151 61.28820399 15.99023438 65.484375 C15.97951867 73.71355793 15.96245698 81.94271205 15.94140625 90.171875 C14.95140625 90.666875 14.95140625 90.666875 13.94140625 91.171875 C13.5546875 90.58019531 13.16796875 89.98851563 12.76953125 89.37890625 C11.98835938 88.19361328 11.98835938 88.19361328 11.19140625 86.984375 C10.6809375 86.20707031 10.17046875 85.42976563 9.64453125 84.62890625 C-0.84565805 69.49512398 -21.30293746 59.55714352 -38.53125 54.01171875 C-41.05859375 53.171875 -41.05859375 53.171875 -42.05859375 52.171875 C-41.98724749 50.55632452 -41.84446594 48.94382618 -41.671875 47.3359375 C-41.26839725 43.35264037 -40.92133054 39.37827333 -40.6640625 35.3828125 C-40.59509766 34.42117187 -40.52613281 33.45953125 -40.45507812 32.46875 C-40.31525619 30.51385634 -40.18773446 28.55804566 -40.07226562 26.6015625 C-39.50713914 19.15989687 -37.98367252 12.81099869 -33.234375 6.90234375 C-23.61918724 -1.05991865 -12.21106893 -5.40448145 0 0 Z " fill="#7F69DE" transform="translate(138.05859375,1.828125)"/>
<path d="M0 0 C2.66627618 2.45427869 4.53842802 5.19153542 6.5625 8.1875 C16.35422416 21.68659798 32.17541303 29.78875693 47.3671875 35.90625 C50 37 50 37 51 38 C50.93255432 40.12760454 50.79241355 42.25292019 50.625 44.375 C50.27971511 48.88414446 49.96858665 53.38758052 49.77734375 57.90625 C49.74108887 58.73205566 49.70483398 59.55786133 49.66748047 60.40869141 C49.59933284 62.00968529 49.53682613 63.61093296 49.48095703 65.21240234 C49.05458431 74.73744661 47.45294453 82.68002988 41 90 C35.3680322 94.6110334 29.40433638 97.31794639 22.0625 96.875 C13.67595469 95.7467652 9.31631801 91.65868454 3.796875 85.609375 C-2.1012643 77.04425097 -1.40903657 68.01554991 -1.328125 58.06640625 C-1.32506376 56.42113925 -1.32319042 54.77586965 -1.32244873 53.13059998 C-1.31786546 49.69869932 -1.3035084 46.26703592 -1.28125 42.83520508 C-1.25281261 38.42771594 -1.24202076 34.0204119 -1.2375679 29.6128397 C-1.233423 26.22348673 -1.22361589 22.8341714 -1.21169281 19.44483757 C-1.20598414 17.81846353 -1.20122741 16.19208587 -1.19742584 14.56570625 C-1.1905882 12.30358544 -1.17697207 10.04161441 -1.16113281 7.77954102 C-1.15430481 6.49128922 -1.14747681 5.20303741 -1.14044189 3.87574768 C-1 1 -1 1 0 0 Z " fill="#A9AEF6" transform="translate(1,72)"/>
<path d="M0 0 C0.94101562 0.31195313 1.88203125 0.62390625 2.8515625 0.9453125 C7.63377578 2.31063079 12.43342905 2.53594016 17.375 2.875 C42.41892018 4.90180834 64.46184567 12.54118952 81.5 31.8125 C83.417144 34.06960268 84.74325922 36.31778935 86 39 C82.53448194 39.86637952 80.40614512 39.95190748 77 39 C75.80375 38.7525 74.6075 38.505 73.375 38.25 C70.11246916 37.45076941 67.49407706 36.25309901 64.5625 34.625 C54.13530914 29.15234393 40.41920047 26.67419905 28.74536133 27.16845703 C16.45478903 27.62758366 16.45478903 27.62758366 11.56640625 23.734375 C6.46048065 18.08093119 0 7.8890429 0 0 Z " fill="#937FEE" transform="translate(59,56)"/>
<path d="M0 0 C1.65 0 3.3 0 5 0 C5.33 0.66 5.66 1.32 6 2 C6.66 1.67 7.32 1.34 8 1 C13.274502 4.51633467 14.29500006 11.00276561 15.69921875 16.97265625 C17.35129591 25.86575248 17.9766289 35.10516995 16 44 C15.67 44 15.34 44 15 44 C14.84144531 42.69546875 14.68289062 41.3909375 14.51953125 40.046875 C13.19663607 29.8923666 11.53831822 21.24139387 7 12 C5.44690887 8.54108179 5 6.90683197 5 3 C3.35 2.67 1.7 2.34 0 2 C0 1.34 0 0.68 0 0 Z " fill="#6149C6" transform="translate(138,98)"/>
<path d="M0 0 C7.75 -0.125 7.75 -0.125 10 1 C11.2375 1.1546875 11.2375 1.1546875 12.5 1.3125 C15 2 15 2 16.3125 4.0625 C16.6528125 5.0215625 16.6528125 5.0215625 17 6 C15.68 6.33 14.36 6.66 13 7 C12.67 6.01 12.34 5.02 12 4 C10.700625 4.0928125 10.700625 4.0928125 9.375 4.1875 C5.55800967 3.97544498 3.28922464 2.87955693 0 1 C0 0.67 0 0.34 0 0 Z " fill="#846FE2" transform="translate(131,94)"/>
</svg>
